<mxfile host="Electron" modified="2024-02-23T03:30:02.552Z" agent="Mozilla/5.0 (Windows NT 10.0; Win64; x64) AppleWebKit/537.36 (KHTML, like Gecko) draw.io/22.0.3 Chrome/114.0.5735.289 Electron/25.8.4 Safari/537.36" etag="a6tBNjuYvmmnSPQOXvIU" version="22.0.3" type="device">
  <diagram id="R2lEEEUBdFMjLlhIrx00" name="Page-1">
    <mxGraphModel dx="1900" dy="621" grid="1" gridSize="10" guides="1" tooltips="1" connect="1" arrows="1" fold="1" page="1" pageScale="1" pageWidth="850" pageHeight="1100" math="0" shadow="0" extFonts="Permanent Marker^https://fonts.googleapis.com/css?family=Permanent+Marker">
      <root>
        <mxCell id="0" />
        <mxCell id="1" parent="0" />
        <mxCell id="YxHytJEVyZfE15fHDrtV-1" value="Usuario" style="whiteSpace=wrap;html=1;align=center;" parent="1" vertex="1">
          <mxGeometry x="260" y="145" width="120" height="40" as="geometry" />
        </mxCell>
        <mxCell id="YxHytJEVyZfE15fHDrtV-2" value="Nombre" style="ellipse;whiteSpace=wrap;html=1;align=center;" parent="1" vertex="1">
          <mxGeometry x="280" y="25" width="100" height="40" as="geometry" />
        </mxCell>
        <mxCell id="YxHytJEVyZfE15fHDrtV-3" value="Apellido" style="ellipse;whiteSpace=wrap;html=1;align=center;" parent="1" vertex="1">
          <mxGeometry x="170" y="30" width="100" height="40" as="geometry" />
        </mxCell>
        <mxCell id="YxHytJEVyZfE15fHDrtV-4" value="Email" style="ellipse;whiteSpace=wrap;html=1;align=center;" parent="1" vertex="1">
          <mxGeometry x="90" y="65" width="100" height="40" as="geometry" />
        </mxCell>
        <mxCell id="YxHytJEVyZfE15fHDrtV-5" value="Telefono" style="ellipse;whiteSpace=wrap;html=1;align=center;" parent="1" vertex="1">
          <mxGeometry x="70" y="110" width="100" height="40" as="geometry" />
        </mxCell>
        <mxCell id="YxHytJEVyZfE15fHDrtV-10" value="" style="endArrow=none;html=1;rounded=0;exitX=1;exitY=0.5;exitDx=0;exitDy=0;entryX=0;entryY=0.5;entryDx=0;entryDy=0;" parent="1" source="YxHytJEVyZfE15fHDrtV-5" target="YxHytJEVyZfE15fHDrtV-1" edge="1">
          <mxGeometry relative="1" as="geometry">
            <mxPoint x="430" y="190" as="sourcePoint" />
            <mxPoint x="590" y="190" as="targetPoint" />
          </mxGeometry>
        </mxCell>
        <mxCell id="YxHytJEVyZfE15fHDrtV-11" value="" style="endArrow=none;html=1;rounded=0;exitX=1;exitY=1;exitDx=0;exitDy=0;entryX=0;entryY=0.25;entryDx=0;entryDy=0;" parent="1" source="YxHytJEVyZfE15fHDrtV-4" target="YxHytJEVyZfE15fHDrtV-1" edge="1">
          <mxGeometry relative="1" as="geometry">
            <mxPoint x="300" y="240" as="sourcePoint" />
            <mxPoint x="460" y="240" as="targetPoint" />
          </mxGeometry>
        </mxCell>
        <mxCell id="YxHytJEVyZfE15fHDrtV-12" value="" style="endArrow=none;html=1;rounded=0;exitX=0.5;exitY=1;exitDx=0;exitDy=0;entryX=0.25;entryY=0;entryDx=0;entryDy=0;" parent="1" source="YxHytJEVyZfE15fHDrtV-3" target="YxHytJEVyZfE15fHDrtV-1" edge="1">
          <mxGeometry relative="1" as="geometry">
            <mxPoint x="430" y="190" as="sourcePoint" />
            <mxPoint x="590" y="190" as="targetPoint" />
          </mxGeometry>
        </mxCell>
        <mxCell id="YxHytJEVyZfE15fHDrtV-13" value="" style="endArrow=none;html=1;rounded=0;exitX=0.5;exitY=0;exitDx=0;exitDy=0;entryX=0.5;entryY=1;entryDx=0;entryDy=0;" parent="1" source="YxHytJEVyZfE15fHDrtV-1" target="YxHytJEVyZfE15fHDrtV-2" edge="1">
          <mxGeometry relative="1" as="geometry">
            <mxPoint x="430" y="190" as="sourcePoint" />
            <mxPoint x="590" y="190" as="targetPoint" />
          </mxGeometry>
        </mxCell>
        <mxCell id="YxHytJEVyZfE15fHDrtV-15" value="Id" style="ellipse;whiteSpace=wrap;html=1;align=center;fontStyle=4;" parent="1" vertex="1">
          <mxGeometry x="70" y="160" width="100" height="40" as="geometry" />
        </mxCell>
        <mxCell id="YxHytJEVyZfE15fHDrtV-17" value="" style="endArrow=none;html=1;rounded=0;entryX=0;entryY=0.75;entryDx=0;entryDy=0;" parent="1" source="YxHytJEVyZfE15fHDrtV-15" target="YxHytJEVyZfE15fHDrtV-1" edge="1">
          <mxGeometry relative="1" as="geometry">
            <mxPoint x="230" y="230" as="sourcePoint" />
            <mxPoint x="390" y="230" as="targetPoint" />
          </mxGeometry>
        </mxCell>
        <mxCell id="YxHytJEVyZfE15fHDrtV-21" value="Servicio" style="whiteSpace=wrap;html=1;align=center;" parent="1" vertex="1">
          <mxGeometry x="265" y="630" width="100" height="40" as="geometry" />
        </mxCell>
        <mxCell id="YxHytJEVyZfE15fHDrtV-22" value="Nombre" style="ellipse;whiteSpace=wrap;html=1;align=center;" parent="1" vertex="1">
          <mxGeometry x="277.5" y="760" width="75" height="20" as="geometry" />
        </mxCell>
        <mxCell id="YxHytJEVyZfE15fHDrtV-23" value="Descripcion" style="ellipse;whiteSpace=wrap;html=1;align=center;" parent="1" vertex="1">
          <mxGeometry x="160" y="710" width="90" height="20" as="geometry" />
        </mxCell>
        <mxCell id="YxHytJEVyZfE15fHDrtV-24" value="Duracion" style="ellipse;whiteSpace=wrap;html=1;align=center;" parent="1" vertex="1">
          <mxGeometry x="355" y="770" width="70" height="20" as="geometry" />
        </mxCell>
        <mxCell id="YxHytJEVyZfE15fHDrtV-25" value="Frecuencia" style="ellipse;whiteSpace=wrap;html=1;align=center;" parent="1" vertex="1">
          <mxGeometry x="392.5" y="740" width="75" height="20" as="geometry" />
        </mxCell>
        <mxCell id="YxHytJEVyZfE15fHDrtV-28" value="" style="endArrow=none;html=1;rounded=0;entryX=0.5;entryY=0;entryDx=0;entryDy=0;exitX=0.337;exitY=1.022;exitDx=0;exitDy=0;exitPerimeter=0;" parent="1" source="YxHytJEVyZfE15fHDrtV-21" target="YxHytJEVyZfE15fHDrtV-22" edge="1">
          <mxGeometry relative="1" as="geometry">
            <mxPoint x="740" y="185" as="sourcePoint" />
            <mxPoint x="900" y="185" as="targetPoint" />
          </mxGeometry>
        </mxCell>
        <mxCell id="YxHytJEVyZfE15fHDrtV-29" value="" style="endArrow=none;html=1;rounded=0;entryX=0.5;entryY=0;entryDx=0;entryDy=0;exitX=0.5;exitY=1;exitDx=0;exitDy=0;" parent="1" source="YxHytJEVyZfE15fHDrtV-21" target="YxHytJEVyZfE15fHDrtV-24" edge="1">
          <mxGeometry relative="1" as="geometry">
            <mxPoint x="740" y="185" as="sourcePoint" />
            <mxPoint x="900" y="185" as="targetPoint" />
          </mxGeometry>
        </mxCell>
        <mxCell id="YxHytJEVyZfE15fHDrtV-30" value="" style="endArrow=none;html=1;rounded=0;entryX=0.5;entryY=0;entryDx=0;entryDy=0;exitX=0.75;exitY=1;exitDx=0;exitDy=0;" parent="1" source="YxHytJEVyZfE15fHDrtV-21" target="YxHytJEVyZfE15fHDrtV-25" edge="1">
          <mxGeometry relative="1" as="geometry">
            <mxPoint x="740" y="185" as="sourcePoint" />
            <mxPoint x="900" y="185" as="targetPoint" />
          </mxGeometry>
        </mxCell>
        <mxCell id="YxHytJEVyZfE15fHDrtV-31" value="" style="endArrow=none;html=1;rounded=0;entryX=0.5;entryY=0;entryDx=0;entryDy=0;exitX=0;exitY=0.5;exitDx=0;exitDy=0;" parent="1" source="YxHytJEVyZfE15fHDrtV-21" target="YxHytJEVyZfE15fHDrtV-23" edge="1">
          <mxGeometry relative="1" as="geometry">
            <mxPoint x="740" y="185" as="sourcePoint" />
            <mxPoint x="900" y="185" as="targetPoint" />
          </mxGeometry>
        </mxCell>
        <mxCell id="YxHytJEVyZfE15fHDrtV-33" value="Contrata" style="shape=rhombus;perimeter=rhombusPerimeter;whiteSpace=wrap;html=1;align=center;" parent="1" vertex="1">
          <mxGeometry x="255" y="475" width="110" height="50" as="geometry" />
        </mxCell>
        <mxCell id="YxHytJEVyZfE15fHDrtV-35" value="Comenta" style="shape=rhombus;perimeter=rhombusPerimeter;whiteSpace=wrap;html=1;align=center;" parent="1" vertex="1">
          <mxGeometry x="480" y="490" width="110" height="50" as="geometry" />
        </mxCell>
        <mxCell id="YxHytJEVyZfE15fHDrtV-38" value="" style="fontSize=12;html=1;endArrow=ERzeroToMany;endFill=1;rounded=0;entryX=0.5;entryY=0;entryDx=0;entryDy=0;exitX=0.5;exitY=1;exitDx=0;exitDy=0;" parent="1" source="YxHytJEVyZfE15fHDrtV-33" target="YxHytJEVyZfE15fHDrtV-21" edge="1">
          <mxGeometry width="100" height="100" relative="1" as="geometry">
            <mxPoint x="620" y="245" as="sourcePoint" />
            <mxPoint x="720" y="145" as="targetPoint" />
          </mxGeometry>
        </mxCell>
        <mxCell id="YxHytJEVyZfE15fHDrtV-39" value="Estado" style="ellipse;whiteSpace=wrap;html=1;align=center;" parent="1" vertex="1">
          <mxGeometry x="365" y="525" width="80" height="25" as="geometry" />
        </mxCell>
        <mxCell id="YxHytJEVyZfE15fHDrtV-40" value="" style="endArrow=none;html=1;rounded=0;exitX=1;exitY=1;exitDx=0;exitDy=0;entryX=0;entryY=0.5;entryDx=0;entryDy=0;" parent="1" source="YxHytJEVyZfE15fHDrtV-33" target="YxHytJEVyZfE15fHDrtV-39" edge="1">
          <mxGeometry relative="1" as="geometry">
            <mxPoint x="590" y="175" as="sourcePoint" />
            <mxPoint x="560" y="55" as="targetPoint" />
          </mxGeometry>
        </mxCell>
        <mxCell id="YxHytJEVyZfE15fHDrtV-41" value="Motivo" style="ellipse;whiteSpace=wrap;html=1;align=center;" parent="1" vertex="1">
          <mxGeometry x="365" y="450" width="80" height="25" as="geometry" />
        </mxCell>
        <mxCell id="YxHytJEVyZfE15fHDrtV-42" value="" style="endArrow=none;html=1;rounded=0;exitX=1;exitY=0;exitDx=0;exitDy=0;entryX=0;entryY=1;entryDx=0;entryDy=0;" parent="1" source="YxHytJEVyZfE15fHDrtV-33" target="YxHytJEVyZfE15fHDrtV-41" edge="1">
          <mxGeometry relative="1" as="geometry">
            <mxPoint x="590" y="175" as="sourcePoint" />
            <mxPoint x="393" y="478" as="targetPoint" />
          </mxGeometry>
        </mxCell>
        <mxCell id="YxHytJEVyZfE15fHDrtV-49" value="" style="fontSize=12;html=1;endArrow=ERzeroToMany;endFill=1;rounded=0;entryX=0;entryY=1;entryDx=0;entryDy=0;exitX=0.5;exitY=0;exitDx=0;exitDy=0;" parent="1" source="YxHytJEVyZfE15fHDrtV-33" target="YxHytJEVyZfE15fHDrtV-82" edge="1">
          <mxGeometry width="100" height="100" relative="1" as="geometry">
            <mxPoint x="380" y="480" as="sourcePoint" />
            <mxPoint x="360.0000000000002" y="302.5" as="targetPoint" />
          </mxGeometry>
        </mxCell>
        <mxCell id="YxHytJEVyZfE15fHDrtV-50" value="" style="fontSize=12;html=1;endArrow=ERzeroToMany;endFill=1;rounded=0;entryX=1;entryY=0;entryDx=0;entryDy=0;" parent="1" source="YxHytJEVyZfE15fHDrtV-35" target="YxHytJEVyZfE15fHDrtV-21" edge="1">
          <mxGeometry width="100" height="100" relative="1" as="geometry">
            <mxPoint x="620" y="225" as="sourcePoint" />
            <mxPoint x="800" y="205" as="targetPoint" />
          </mxGeometry>
        </mxCell>
        <mxCell id="YxHytJEVyZfE15fHDrtV-51" value="" style="fontSize=12;html=1;endArrow=ERzeroToMany;endFill=1;rounded=0;entryX=0.75;entryY=1;entryDx=0;entryDy=0;exitX=0.5;exitY=0;exitDx=0;exitDy=0;" parent="1" source="YxHytJEVyZfE15fHDrtV-35" target="YxHytJEVyZfE15fHDrtV-82" edge="1">
          <mxGeometry width="100" height="100" relative="1" as="geometry">
            <mxPoint x="520" y="230" as="sourcePoint" />
            <mxPoint x="620" y="130" as="targetPoint" />
          </mxGeometry>
        </mxCell>
        <mxCell id="YxHytJEVyZfE15fHDrtV-52" value="Fecha" style="ellipse;whiteSpace=wrap;html=1;align=center;" parent="1" vertex="1">
          <mxGeometry x="590" y="470" width="80" height="20" as="geometry" />
        </mxCell>
        <mxCell id="YxHytJEVyZfE15fHDrtV-53" value="Estado" style="ellipse;whiteSpace=wrap;html=1;align=center;" parent="1" vertex="1">
          <mxGeometry x="590" y="530" width="70" height="20" as="geometry" />
        </mxCell>
        <mxCell id="YxHytJEVyZfE15fHDrtV-54" value="Mensaje" style="ellipse;whiteSpace=wrap;html=1;align=center;" parent="1" vertex="1">
          <mxGeometry x="610" y="505" width="70" height="20" as="geometry" />
        </mxCell>
        <mxCell id="YxHytJEVyZfE15fHDrtV-55" value="" style="endArrow=none;html=1;rounded=0;entryX=0.808;entryY=0.257;entryDx=0;entryDy=0;exitX=0;exitY=0.5;exitDx=0;exitDy=0;entryPerimeter=0;" parent="1" source="YxHytJEVyZfE15fHDrtV-52" target="YxHytJEVyZfE15fHDrtV-35" edge="1">
          <mxGeometry relative="1" as="geometry">
            <mxPoint x="550" y="205" as="sourcePoint" />
            <mxPoint x="710" y="205" as="targetPoint" />
          </mxGeometry>
        </mxCell>
        <mxCell id="YxHytJEVyZfE15fHDrtV-56" value="" style="endArrow=none;html=1;rounded=0;exitX=0;exitY=0.5;exitDx=0;exitDy=0;entryX=1;entryY=0.5;entryDx=0;entryDy=0;" parent="1" source="YxHytJEVyZfE15fHDrtV-54" target="YxHytJEVyZfE15fHDrtV-35" edge="1">
          <mxGeometry relative="1" as="geometry">
            <mxPoint x="550" y="205" as="sourcePoint" />
            <mxPoint x="655" y="250" as="targetPoint" />
          </mxGeometry>
        </mxCell>
        <mxCell id="YxHytJEVyZfE15fHDrtV-57" value="" style="endArrow=none;html=1;rounded=0;entryX=1;entryY=1;entryDx=0;entryDy=0;exitX=0;exitY=0.5;exitDx=0;exitDy=0;" parent="1" source="YxHytJEVyZfE15fHDrtV-53" target="YxHytJEVyZfE15fHDrtV-35" edge="1">
          <mxGeometry relative="1" as="geometry">
            <mxPoint x="550" y="205" as="sourcePoint" />
            <mxPoint x="710" y="205" as="targetPoint" />
          </mxGeometry>
        </mxCell>
        <mxCell id="YxHytJEVyZfE15fHDrtV-59" value="Experiencia" style="whiteSpace=wrap;html=1;align=center;" parent="1" vertex="1">
          <mxGeometry x="-160" y="360" width="110" height="40" as="geometry" />
        </mxCell>
        <mxCell id="YxHytJEVyZfE15fHDrtV-60" value="Fecha desde" style="ellipse;whiteSpace=wrap;html=1;align=center;" parent="1" vertex="1">
          <mxGeometry x="-300" y="365" width="90" height="30" as="geometry" />
        </mxCell>
        <mxCell id="YxHytJEVyZfE15fHDrtV-61" value="Fecha hasta" style="ellipse;whiteSpace=wrap;html=1;align=center;" parent="1" vertex="1">
          <mxGeometry x="-280" y="430" width="90" height="30" as="geometry" />
        </mxCell>
        <mxCell id="YxHytJEVyZfE15fHDrtV-62" value="Descripcion" style="ellipse;whiteSpace=wrap;html=1;align=center;" parent="1" vertex="1">
          <mxGeometry x="-180" y="450" width="90" height="30" as="geometry" />
        </mxCell>
        <mxCell id="YxHytJEVyZfE15fHDrtV-63" value="" style="endArrow=none;html=1;rounded=0;exitX=1;exitY=0.5;exitDx=0;exitDy=0;entryX=0;entryY=0.5;entryDx=0;entryDy=0;" parent="1" source="YxHytJEVyZfE15fHDrtV-60" target="YxHytJEVyZfE15fHDrtV-59" edge="1">
          <mxGeometry relative="1" as="geometry">
            <mxPoint x="330" y="340" as="sourcePoint" />
            <mxPoint x="490" y="340" as="targetPoint" />
          </mxGeometry>
        </mxCell>
        <mxCell id="YxHytJEVyZfE15fHDrtV-64" value="" style="endArrow=none;html=1;rounded=0;entryX=0.5;entryY=0;entryDx=0;entryDy=0;exitX=0;exitY=1;exitDx=0;exitDy=0;" parent="1" source="YxHytJEVyZfE15fHDrtV-59" target="YxHytJEVyZfE15fHDrtV-61" edge="1">
          <mxGeometry relative="1" as="geometry">
            <mxPoint x="-104" y="401" as="sourcePoint" />
            <mxPoint x="490" y="340" as="targetPoint" />
          </mxGeometry>
        </mxCell>
        <mxCell id="YxHytJEVyZfE15fHDrtV-65" value="" style="endArrow=none;html=1;rounded=0;entryX=0.5;entryY=0;entryDx=0;entryDy=0;exitX=0.25;exitY=1;exitDx=0;exitDy=0;" parent="1" source="YxHytJEVyZfE15fHDrtV-59" target="YxHytJEVyZfE15fHDrtV-62" edge="1">
          <mxGeometry relative="1" as="geometry">
            <mxPoint x="330" y="340" as="sourcePoint" />
            <mxPoint x="490" y="340" as="targetPoint" />
          </mxGeometry>
        </mxCell>
        <mxCell id="YxHytJEVyZfE15fHDrtV-68" value="Categoria" style="whiteSpace=wrap;html=1;align=center;" parent="1" vertex="1">
          <mxGeometry x="650" y="630" width="100" height="40" as="geometry" />
        </mxCell>
        <mxCell id="YxHytJEVyZfE15fHDrtV-69" value="Pertenece" style="shape=rhombus;perimeter=rhombusPerimeter;whiteSpace=wrap;html=1;align=center;" parent="1" vertex="1">
          <mxGeometry x="470" y="630" width="110" height="40" as="geometry" />
        </mxCell>
        <mxCell id="YxHytJEVyZfE15fHDrtV-74" value="" style="edgeStyle=entityRelationEdgeStyle;fontSize=12;html=1;endArrow=ERmandOne;rounded=0;entryX=0;entryY=0.5;entryDx=0;entryDy=0;exitX=1;exitY=0.5;exitDx=0;exitDy=0;" parent="1" source="YxHytJEVyZfE15fHDrtV-69" target="YxHytJEVyZfE15fHDrtV-68" edge="1">
          <mxGeometry width="100" height="100" relative="1" as="geometry">
            <mxPoint x="480" y="730" as="sourcePoint" />
            <mxPoint x="580" y="630" as="targetPoint" />
          </mxGeometry>
        </mxCell>
        <mxCell id="YxHytJEVyZfE15fHDrtV-75" value="" style="edgeStyle=entityRelationEdgeStyle;fontSize=12;html=1;endArrow=ERzeroToMany;endFill=1;rounded=0;entryX=1;entryY=0.5;entryDx=0;entryDy=0;exitX=0;exitY=0.5;exitDx=0;exitDy=0;" parent="1" source="YxHytJEVyZfE15fHDrtV-69" target="YxHytJEVyZfE15fHDrtV-21" edge="1">
          <mxGeometry width="100" height="100" relative="1" as="geometry">
            <mxPoint x="1000" y="245" as="sourcePoint" />
            <mxPoint x="1100" y="145" as="targetPoint" />
          </mxGeometry>
        </mxCell>
        <mxCell id="YxHytJEVyZfE15fHDrtV-76" value="Nombre" style="ellipse;whiteSpace=wrap;html=1;align=center;" parent="1" vertex="1">
          <mxGeometry x="670" y="560" width="100" height="40" as="geometry" />
        </mxCell>
        <mxCell id="YxHytJEVyZfE15fHDrtV-77" value="" style="endArrow=none;html=1;rounded=0;entryX=0.5;entryY=1;entryDx=0;entryDy=0;exitX=0.5;exitY=0;exitDx=0;exitDy=0;" parent="1" source="YxHytJEVyZfE15fHDrtV-68" target="YxHytJEVyZfE15fHDrtV-76" edge="1">
          <mxGeometry relative="1" as="geometry">
            <mxPoint x="490" y="690" as="sourcePoint" />
            <mxPoint x="650" y="690" as="targetPoint" />
          </mxGeometry>
        </mxCell>
        <mxCell id="YxHytJEVyZfE15fHDrtV-78" value="Tipo" style="ellipse;whiteSpace=wrap;html=1;align=center;" parent="1" vertex="1">
          <mxGeometry x="225" y="740" width="70" height="20" as="geometry" />
        </mxCell>
        <mxCell id="YxHytJEVyZfE15fHDrtV-79" value="" style="endArrow=none;html=1;rounded=0;entryX=0.5;entryY=0;entryDx=0;entryDy=0;exitX=0;exitY=1;exitDx=0;exitDy=0;" parent="1" source="YxHytJEVyZfE15fHDrtV-21" target="YxHytJEVyZfE15fHDrtV-78" edge="1">
          <mxGeometry relative="1" as="geometry">
            <mxPoint x="740" y="215" as="sourcePoint" />
            <mxPoint x="900" y="215" as="targetPoint" />
          </mxGeometry>
        </mxCell>
        <mxCell id="YxHytJEVyZfE15fHDrtV-80" value="Es" style="triangle;whiteSpace=wrap;html=1;rotation=90;horizontal=0;" parent="1" vertex="1">
          <mxGeometry x="295" y="235" width="50" height="80" as="geometry" />
        </mxCell>
        <mxCell id="YxHytJEVyZfE15fHDrtV-81" value="Proveedor" style="whiteSpace=wrap;html=1;align=center;" parent="1" vertex="1">
          <mxGeometry x="160" y="360" width="100" height="40" as="geometry" />
        </mxCell>
        <mxCell id="YxHytJEVyZfE15fHDrtV-82" value="Cliente" style="whiteSpace=wrap;html=1;align=center;" parent="1" vertex="1">
          <mxGeometry x="380" y="360" width="100" height="40" as="geometry" />
        </mxCell>
        <mxCell id="YxHytJEVyZfE15fHDrtV-85" value="" style="endArrow=none;html=1;rounded=0;exitX=0.5;exitY=0;exitDx=0;exitDy=0;entryX=0.5;entryY=1;entryDx=0;entryDy=0;" parent="1" source="YxHytJEVyZfE15fHDrtV-81" target="YxHytJEVyZfE15fHDrtV-80" edge="1">
          <mxGeometry relative="1" as="geometry">
            <mxPoint x="390" y="270" as="sourcePoint" />
            <mxPoint x="550" y="270" as="targetPoint" />
          </mxGeometry>
        </mxCell>
        <mxCell id="YxHytJEVyZfE15fHDrtV-86" value="" style="endArrow=none;html=1;rounded=0;entryX=0.5;entryY=0;entryDx=0;entryDy=0;exitX=0.5;exitY=0;exitDx=0;exitDy=0;" parent="1" source="YxHytJEVyZfE15fHDrtV-80" target="YxHytJEVyZfE15fHDrtV-82" edge="1">
          <mxGeometry relative="1" as="geometry">
            <mxPoint x="390" y="270" as="sourcePoint" />
            <mxPoint x="550" y="270" as="targetPoint" />
          </mxGeometry>
        </mxCell>
        <mxCell id="YxHytJEVyZfE15fHDrtV-87" value="" style="endArrow=none;html=1;rounded=0;entryX=0.5;entryY=1;entryDx=0;entryDy=0;exitX=0;exitY=0.5;exitDx=0;exitDy=0;" parent="1" source="YxHytJEVyZfE15fHDrtV-80" target="YxHytJEVyZfE15fHDrtV-1" edge="1">
          <mxGeometry relative="1" as="geometry">
            <mxPoint x="390" y="270" as="sourcePoint" />
            <mxPoint x="550" y="270" as="targetPoint" />
          </mxGeometry>
        </mxCell>
        <mxCell id="YxHytJEVyZfE15fHDrtV-88" value="Titulo" style="ellipse;whiteSpace=wrap;html=1;align=center;" parent="1" vertex="1">
          <mxGeometry x="80" y="280" width="90" height="30" as="geometry" />
        </mxCell>
        <mxCell id="YxHytJEVyZfE15fHDrtV-89" value="" style="endArrow=none;html=1;rounded=0;exitX=0.5;exitY=1;exitDx=0;exitDy=0;entryX=0.25;entryY=0;entryDx=0;entryDy=0;" parent="1" source="YxHytJEVyZfE15fHDrtV-88" target="YxHytJEVyZfE15fHDrtV-81" edge="1">
          <mxGeometry relative="1" as="geometry">
            <mxPoint x="350" y="370" as="sourcePoint" />
            <mxPoint x="510" y="370" as="targetPoint" />
          </mxGeometry>
        </mxCell>
        <mxCell id="YxHytJEVyZfE15fHDrtV-91" value="Posee" style="shape=rhombus;perimeter=rhombusPerimeter;whiteSpace=wrap;html=1;align=center;" parent="1" vertex="1">
          <mxGeometry x="10" y="360" width="100" height="40" as="geometry" />
        </mxCell>
        <mxCell id="YxHytJEVyZfE15fHDrtV-92" value="" style="edgeStyle=entityRelationEdgeStyle;fontSize=12;html=1;endArrow=ERzeroToMany;endFill=1;rounded=0;entryX=1;entryY=0.5;entryDx=0;entryDy=0;exitX=0;exitY=0.5;exitDx=0;exitDy=0;" parent="1" source="YxHytJEVyZfE15fHDrtV-91" target="YxHytJEVyZfE15fHDrtV-59" edge="1">
          <mxGeometry width="100" height="100" relative="1" as="geometry">
            <mxPoint x="100" y="430" as="sourcePoint" />
            <mxPoint x="200" y="330" as="targetPoint" />
          </mxGeometry>
        </mxCell>
        <mxCell id="YxHytJEVyZfE15fHDrtV-93" value="" style="edgeStyle=entityRelationEdgeStyle;fontSize=12;html=1;endArrow=ERmandOne;rounded=0;entryX=0;entryY=0.5;entryDx=0;entryDy=0;exitX=1;exitY=0.5;exitDx=0;exitDy=0;" parent="1" source="YxHytJEVyZfE15fHDrtV-91" target="YxHytJEVyZfE15fHDrtV-81" edge="1">
          <mxGeometry width="100" height="100" relative="1" as="geometry">
            <mxPoint x="120" y="430" as="sourcePoint" />
            <mxPoint x="220" y="330" as="targetPoint" />
          </mxGeometry>
        </mxCell>
        <mxCell id="YxHytJEVyZfE15fHDrtV-98" value="Publica" style="shape=rhombus;perimeter=rhombusPerimeter;whiteSpace=wrap;html=1;align=center;" parent="1" vertex="1">
          <mxGeometry x="110" y="505" width="100" height="45" as="geometry" />
        </mxCell>
        <mxCell id="YxHytJEVyZfE15fHDrtV-101" value="" style="fontSize=12;html=1;endArrow=ERzeroToMany;endFill=1;rounded=0;entryX=0.25;entryY=0;entryDx=0;entryDy=0;exitX=0.5;exitY=1;exitDx=0;exitDy=0;" parent="1" source="YxHytJEVyZfE15fHDrtV-98" target="YxHytJEVyZfE15fHDrtV-21" edge="1">
          <mxGeometry width="100" height="100" relative="1" as="geometry">
            <mxPoint x="220" y="580" as="sourcePoint" />
            <mxPoint x="320" y="480" as="targetPoint" />
          </mxGeometry>
        </mxCell>
        <mxCell id="YxHytJEVyZfE15fHDrtV-102" value="" style="fontSize=12;html=1;endArrow=ERmandOne;rounded=0;entryX=0.5;entryY=1;entryDx=0;entryDy=0;exitX=0.5;exitY=0;exitDx=0;exitDy=0;" parent="1" source="YxHytJEVyZfE15fHDrtV-98" target="YxHytJEVyZfE15fHDrtV-81" edge="1">
          <mxGeometry width="100" height="100" relative="1" as="geometry">
            <mxPoint x="220" y="580" as="sourcePoint" />
            <mxPoint x="320" y="480" as="targetPoint" />
          </mxGeometry>
        </mxCell>
        <mxCell id="YxHytJEVyZfE15fHDrtV-103" value="Horario de contacto" style="ellipse;whiteSpace=wrap;html=1;align=center;" parent="1" vertex="1">
          <mxGeometry x="530" y="350" width="100" height="30" as="geometry" />
        </mxCell>
        <mxCell id="YxHytJEVyZfE15fHDrtV-104" value="" style="endArrow=none;html=1;rounded=0;entryX=0;entryY=0.5;entryDx=0;entryDy=0;exitX=1;exitY=0.5;exitDx=0;exitDy=0;" parent="1" source="YxHytJEVyZfE15fHDrtV-82" target="YxHytJEVyZfE15fHDrtV-103" edge="1">
          <mxGeometry relative="1" as="geometry">
            <mxPoint x="380" y="420" as="sourcePoint" />
            <mxPoint x="540" y="420" as="targetPoint" />
          </mxGeometry>
        </mxCell>
        <mxCell id="kfMSg11-MJyE6u88V8PE-1" value="Puntaje" style="ellipse;whiteSpace=wrap;html=1;align=center;" vertex="1" parent="1">
          <mxGeometry x="560" y="560" width="70" height="20" as="geometry" />
        </mxCell>
        <mxCell id="kfMSg11-MJyE6u88V8PE-2" value="" style="endArrow=none;html=1;rounded=0;entryX=0.243;entryY=0.08;entryDx=0;entryDy=0;exitX=0.645;exitY=0.88;exitDx=0;exitDy=0;exitPerimeter=0;entryPerimeter=0;" edge="1" parent="1" source="YxHytJEVyZfE15fHDrtV-35" target="kfMSg11-MJyE6u88V8PE-1">
          <mxGeometry relative="1" as="geometry">
            <mxPoint x="310" y="500" as="sourcePoint" />
            <mxPoint x="470" y="500" as="targetPoint" />
          </mxGeometry>
        </mxCell>
        <mxCell id="kfMSg11-MJyE6u88V8PE-3" value="Contrasena" style="ellipse;whiteSpace=wrap;html=1;align=center;" vertex="1" parent="1">
          <mxGeometry x="380" y="40" width="100" height="40" as="geometry" />
        </mxCell>
        <mxCell id="kfMSg11-MJyE6u88V8PE-4" value="" style="endArrow=none;html=1;rounded=0;entryX=0;entryY=1;entryDx=0;entryDy=0;exitX=0.75;exitY=0;exitDx=0;exitDy=0;" edge="1" parent="1" source="YxHytJEVyZfE15fHDrtV-1" target="kfMSg11-MJyE6u88V8PE-3">
          <mxGeometry relative="1" as="geometry">
            <mxPoint x="410" y="290" as="sourcePoint" />
            <mxPoint x="570" y="290" as="targetPoint" />
          </mxGeometry>
        </mxCell>
      </root>
    </mxGraphModel>
  </diagram>
</mxfile>
